{"title":"Star Wars Episode V The Empire Strikes Back 1980 720p BRRiP XViD","uid":6645272,"size":3673274727,"categoryP":"video","categoryS":"hd___movies","magnet":"?xt=urn:btih:e04a2078cf34f23dc65532add10c03286ba7f3de&amp;dn=Star+Wars+Episode+V+The+Empire+Strikes+Back+1980+720p+BRRiP+XViD&amp;tr=udp%3A%2F%2Ftracker.openbittorrent.com%3A80&amp;tr=udp%3A%2F%2Fopen.demonii.com%3A1337&amp;tr=udp%3A%2F%2Ftracker.coppersurfer.tk%3A6969&amp;tr=udp%3A%2F%2Fexodus.desync.com%3A6969","seeders":0,"leechers":0,"uploader":"TvTeam","files":5,"time":1314920517,"description":". \n  &lt;a href=&quot;\nhttp://www.torrenting.com/&quot; rel=&quot;nofollow&quot; target=&quot;_NEW&quot;&gt;\nhttp://www.torrenting.com/&lt;/a&gt;        :     Greatest Movie Tracker on The Net!!!\n &lt;a href=&quot;\nhttp://www.Torrenting.com&quot; rel=&quot;nofollow&quot; target=&quot;_NEW&quot;&gt;\nhttp://www.Torrenting.com&lt;/a&gt;          :     Once &amp; For all ;)\n\n\n               www . Torrenting . Com \n\n(((((((((((((= Enjoy No RAR releases =))))))))))))))))))))\n\n\n...................................NFO:....................................\n\n.  \n\n[pre]ooooo ooo        ooooo       .o.         .oooooo.     o8o  ooooo      ooo oooooooooooo \n\n      888' `88.       .888'      .888.       d8P'  `Y8b    `&quot;'  `888b.     `8' `888'     `8 \n\n      888   888b     d'888      .8&quot;888.     888           oooo   8 `88b.    8   888         \n\n      888   8 Y88. .P  888     .8' `888.    888           `888   8   `88b.  8   888oooo8    \n\n      888   8  `888'   888    .88ooo8888.   888     ooooo  888   8     `88b.8   888    &quot;    \n\n      888   8    Y     888   .8'     `888.  `88.    .88'   888   8       `888   888       o \n\n     o888o o8o        o888o o88o     o8888o  `Y8bood8P'   o888o o8o        `8  o888ooooood8  \n\n                                                \n\n\n\n\n\n\n\n                  Another Fine Release Brought to you from - IMAGiNE                   \n\n                                                 \n\n\n\n******************************************************************************************\n\n     Star Wars Episode V The Empire Strikes Back 1980 720p BRRiP XViD AC3 - IMAGiNE                 \n\n******************************************************************************************\n\n\n\nRipper ...........: IMAGiNE              IMDB Rating.......: 8.8/10                             \n\nVideo Codec.......: XViD                 Release Date......: 31/08/11\n\nAudio Codec.......: AC3                  Theatre Date......: 21/05/80\n\nAudio Bitrate.....: 448                  Runtime...........: 2h 7mn\n\nSubtitles.........: NIL                  Language..........: ENGLISH\n\nResolution........: 1280 x 544            IMDb URL..........: http://www.imdb.com/title/tt0080684/\n\n\n\n\n\n[color=yellow]DETAILS:[/color]\n\n\n\nVideo\nID                               : 0\nFormat                           : MPEG-4 Visual\nFormat profile                   : Advanced Simple@L5\nFormat settings, BVOP            : 2\nFormat settings, QPel            : No\nFormat settings, GMC             : No warppoints\nFormat settings, Matrix          : Default (MPEG)\nMuxing mode                      : Packed bitstream\nCodec ID                         : XVID\nCodec ID/Hint                    : XviD\nDuration                         : 2h 7mn\nBit rate                         : 3 343 Kbps\nWidth                            : 1 280 pixels\nHeight                           : 544 pixels\nDisplay aspect ratio             : 2.35:1\nFrame rate                       : 23.976 fps\nColor space                      : YUV\nChroma subsampling               : 4:2:0\nBit depth                        : 8 bits\nScan type                        : Progressive\nCompression mode                 : Lossy\nBits/(Pixel*Frame)               : 0.200\nStream size                      : 2.97 GiB (88%)\nWriting library                  : XviD 64\n\nAudio\nID                               : 1\nFormat                           : AC-3\nFormat/Info                      : Audio Coding 3\nMode extension                   : CM (complete main)\nCodec ID                         : 2000\nDuration                         : 2h 7mn\nBit rate mode                    : Constant\nBit rate                         : 448 Kbps\nChannel(s)                       : 6 channels\nChannel positions                : Front: L C R, Side: L R, LFE\nSampling rate                    : 48.0 KHz\nBit depth                        : 16 bits\nCompression mode                 : Lossy\nStream size                      : 408 MiB (12%)\nAlignment                        : Aligned on interleaves\nInterleave, duration             : 42 ms (1.00 video frame)\nInterleave, preload duration     : 512 ms\n\n\n\n\n[color=yellow]SOURCES:[/color]\n\n\n\nVIDEO: ............. Star.Wars.Episode.5.The.Empire.Strikes.Back.1980.BluRay.1080p.DTSES6.1.2Audio.x264-CHD\n\nAUDIO: ............. Star.Wars.Episode.5.The.Empire.Strikes.Back.1980.BluRay.1080p.DTSES6.1.2Audio.x264-CHD  Thanks\n\n\n\n[color=yellow]NOTES:[/color]\n\nOk so here we had a go at Star Wars 5 720p :P\nWe made a script to crop, \nrun a heavy denoiser, resize, sharpen,\nmade a slightest rgb change and so on....\nAudio was converted from \nDTS to AC3 and muxed to our encode\nEnjoy!\n\n\n\n\n\n[color=yellow]SCREENS:[/color]\n\n\n\n[IMG]http://i.imgur.com/iGDEW.jpg[/IMG]\n\n[IMG]http://i.imgur.com/fWcpL.jpg[/IMG]\n\n[IMG]http://i.imgur.com/Vg04U.jpg[/IMG]\n\n[IMG]http://i.imgur.com/JcvVQ.jpg[/IMG]\n\n[IMG]http://i.imgur.com/021uu.jpg[/IMG]\n\n[IMG]http://i.imgur.com/eu3sH.jpg[/IMG]\n\n[IMG]http://i.imgur.com/t9iR6.jpg[/IMG]\n\n\n\n[color=yellow]GREETS:[/color]\n\n\n\nFLAWL3SS,KINOPARK,Rx,ELEKTRI4KA,ADDiCTED,Autotron,CiNEDUB,CRYS\n\nAnd to all the other p2p grps past and present \n\n\n\n[COLOR=RED]Looking for these,syncers,cammers,audio,silver supplier.....Have anything to offer????......\n\nContact us &lt;a class=&quot;__cf_email__&quot; href=&quot;/cdn-cgi/l/email-protection&quot; data-cfemail=&quot;50393d3137393e3537223f252010382523383d31393c7e333f3d&quot;&gt;[email&amp;#160;protected]&lt;/a&gt;&lt;script data-cfhash='f9e31' type=&quot;text/javascript&quot;&gt;\n/* &lt;![CDATA[ */!function(){try{var t=&quot;currentScript&quot;in document?document.currentScript:function(){for(var t=document.getElementsByTagName(&quot;script&quot;),e=t.length;e--;)if(t[e].getAttribute(&quot;data-cfhash&quot;))return t[e]}();if(t&amp;&amp;t.previousSibling){var e,r,n,i,c=t.previousSibling,a=c.getAttribute(&quot;data-cfemail&quot;);if(a){for(e=&quot;&quot;,r=parseInt(a.substr(0,2),16),n=2;a.length-n;n+=2)i=parseInt(a.substr(n,2),16)^r,e+=String.fromCharCode(i);e=document.createTextNode(e),c.parentNode.replaceChild(e,c)}t.parentNode.removeChild(t);}}catch(u){}}()/* ]]&gt; */&lt;/script&gt;[/COLOR]","torrent":{"xt":"urn:btih:e04a2078cf34f23dc65532add10c03286ba7f3de","amp;dn":"Star+Wars+Episode+V+The+Empire+Strikes+Back+1980+720p+BRRiP+XViD","amp;tr":["udp%3A%2F%2Ftracker.openbittorrent.com%3A80","udp%3A%2F%2Fopen.demonii.com%3A1337","udp%3A%2F%2Ftracker.coppersurfer.tk%3A6969","udp%3A%2F%2Fexodus.desync.com%3A6969"],"infoHash":"e04a2078cf34f23dc65532add10c03286ba7f3de","infoHashBuffer":{"type":"Buffer","data":[224,74,32,120,207,52,242,61,198,85,50,173,209,12,3,40,107,167,243,222]},"announce":[],"urlList":[]}}